<svg xmlns="http://www.w3.org/2000/svg" width="440" height="172" viewBox="0 0 440 172" shape-rendering="crispEdges"><style>.bd{animation:g 3s ease-in-out 2.0s infinite}@keyframes g{50%{stroke:#7a3fd1}}</style><rect width="440" height="172" fill="#100010"/><rect class="bd" x="4" y="4" width="432" height="164" fill="none" stroke="#3b0f80" stroke-width="4"/><rect x="0" y="0" width="440" height="172" fill="none" stroke="#100010" stroke-width="4"/><rect x="20" y="22" width="68" height="68" fill="#8b8b8b"/><rect x="20" y="22" width="68" height="3" fill="#373737"/><rect x="20" y="22" width="3" height="68" fill="#373737"/><rect x="20" y="87" width="68" height="3" fill="#ffffff"/><rect x="85" y="22" width="3" height="68" fill="#ffffff"/><path fill="#0f6b4a" d="M40 36h6v6h-6zM46 36h6v6h-6zM52 36h6v6h-6zM58 36h6v6h-6zM34 42h6v6h-6zM64 42h6v6h-6zM28 48h6v6h-6zM70 48h6v6h-6zM28 54h6v6h-6zM70 54h6v6h-6zM34 60h6v6h-6zM64 60h6v6h-6zM40 66h6v6h-6zM46 66h6v6h-6zM52 66h6v6h-6zM58 66h6v6h-6z"/><path fill="#3ee0a1" d="M40 42h6v6h-6zM46 42h6v6h-6zM52 42h6v6h-6zM58 42h6v6h-6zM34 48h6v6h-6zM40 48h6v6h-6zM58 48h6v6h-6zM64 48h6v6h-6zM34 54h6v6h-6zM40 54h6v6h-6zM58 54h6v6h-6zM64 54h6v6h-6zM40 60h6v6h-6zM46 60h6v6h-6zM52 60h6v6h-6zM58 60h6v6h-6z"/><path fill="#0a2a1f" d="M46 48h6v6h-6zM52 48h6v6h-6zM46 54h6v6h-6zM52 54h6v6h-6z"/><text x="104" y="40" font-size="16" font-weight="bold" fill="#55ffff" font-family="'DejaVu Sans Mono',Consolas,'Courier New',monospace">Social Profile Intelligence</text><text x="104" y="64" font-size="12" fill="#aaaaaa" font-family="'DejaVu Sans Mono',Consolas,'Courier New',monospace">OSINT tool that searches 40+ platforms,</text><text x="104" y="81" font-size="12" fill="#aaaaaa" font-family="'DejaVu Sans Mono',Consolas,'Courier New',monospace">generates username variants and profiles</text><text x="104" y="98" font-size="12" fill="#aaaaaa" font-family="'DejaVu Sans Mono',Consolas,'Courier New',monospace">with a local LLM.</text><text x="104" y="123" font-size="12" fill="#5555ff" font-family="'DejaVu Sans Mono',Consolas,'Courier New',monospace">+ 40+ platforms</text><rect x="20" y="140" width="10" height="10" fill="#f1e05a"/><text x="38" y="149" font-size="11" fill="#dddddd" font-family="'DejaVu Sans Mono',Consolas,'Courier New',monospace">JavaScript</text><text x="420" y="149" font-size="10" fill="#777777" text-anchor="end" font-family="'DejaVu Sans Mono',Consolas,'Courier New',monospace">thanmaiashok/social-profile-intelligence</text><g id="vines"><rect x="30" y="0" width="6" height="6" fill="#4a7a3c"/><rect x="108" y="0" width="6" height="6" fill="#4a7a3c"/><rect x="156" y="0" width="6" height="6" fill="#4a7a3c"/><rect x="222" y="0" width="6" height="6" fill="#4a7a3c"/><rect x="276" y="0" width="6" height="6" fill="#2f5229"/><rect x="312" y="0" width="6" height="6" fill="#2f5229"/><rect x="324" y="0" width="6" height="6" fill="#4a7a3c"/><rect x="342" y="0" width="6" height="6" fill="#4a7a3c"/><rect x="378" y="0" width="6" height="6" fill="#4a7a3c"/><rect x="434" y="0" width="6" height="6" fill="#4a7a3c"/><rect x="30" y="6" width="6" height="6" fill="#2f5229"/><rect x="108" y="6" width="6" height="6" fill="#2f5229"/><rect x="156" y="6" width="6" height="6" fill="#2f5229"/><rect x="222" y="6" width="6" height="6" fill="#2f5229"/><rect x="324" y="6" width="6" height="6" fill="#2f5229"/><rect x="342" y="6" width="6" height="6" fill="#2f5229"/><rect x="378" y="6" width="6" height="6" fill="#2f5229"/><rect x="434" y="6" width="6" height="6" fill="#69a04f"/><rect x="0" y="12" width="6" height="6" fill="#4a7a3c"/><rect x="434" y="12" width="6" height="6" fill="#4a7a3c"/><rect x="0" y="18" width="6" height="6" fill="#69a04f"/><rect x="6" y="18" width="6" height="6" fill="#69a04f"/><rect x="428" y="18" width="6" height="6" fill="#2f5229"/><rect x="434" y="18" width="6" height="6" fill="#4a7a3c"/><rect x="0" y="24" width="6" height="6" fill="#4a7a3c"/><rect x="6" y="24" width="6" height="6" fill="#2f5229"/><rect x="428" y="24" width="6" height="6" fill="#2f5229"/><rect x="434" y="24" width="6" height="6" fill="#4a7a3c"/><rect x="0" y="30" width="6" height="6" fill="#69a04f"/><rect x="428" y="30" width="6" height="6" fill="#2f5229"/><rect x="434" y="30" width="6" height="6" fill="#69a04f"/><rect x="0" y="36" width="6" height="6" fill="#4a7a3c"/><rect x="6" y="36" width="6" height="6" fill="#2f5229"/><rect x="428" y="36" width="6" height="6" fill="#69a04f"/><rect x="434" y="36" width="6" height="6" fill="#4a7a3c"/><rect x="0" y="42" width="6" height="6" fill="#4a7a3c"/><rect x="6" y="42" width="6" height="6" fill="#2f5229"/><rect x="428" y="42" width="6" height="6" fill="#4a7a3c"/><rect x="434" y="42" width="6" height="6" fill="#4a7a3c"/><rect x="0" y="48" width="6" height="6" fill="#69a04f"/><rect x="428" y="48" width="6" height="6" fill="#2f5229"/><rect x="434" y="48" width="6" height="6" fill="#69a04f"/><rect x="0" y="54" width="6" height="6" fill="#4a7a3c"/><rect x="6" y="54" width="6" height="6" fill="#4a7a3c"/><rect x="428" y="54" width="6" height="6" fill="#4a7a3c"/><rect x="434" y="54" width="6" height="6" fill="#4a7a3c"/><rect x="0" y="60" width="6" height="6" fill="#4a7a3c"/><rect x="422" y="60" width="6" height="6" fill="#69a04f"/><rect x="428" y="60" width="6" height="6" fill="#4a7a3c"/><rect x="434" y="60" width="6" height="6" fill="#4a7a3c"/><rect x="0" y="66" width="6" height="6" fill="#69a04f"/><rect x="6" y="66" width="6" height="6" fill="#69a04f"/><rect x="422" y="66" width="6" height="6" fill="#69a04f"/><rect x="428" y="66" width="6" height="6" fill="#2f5229"/><rect x="434" y="66" width="6" height="6" fill="#69a04f"/><rect x="0" y="72" width="6" height="6" fill="#4a7a3c"/><rect x="428" y="72" width="6" height="6" fill="#4a7a3c"/><rect x="434" y="72" width="6" height="6" fill="#4a7a3c"/><rect x="0" y="78" width="6" height="6" fill="#4a7a3c"/><rect x="428" y="78" width="6" height="6" fill="#69a04f"/><rect x="434" y="78" width="6" height="6" fill="#4a7a3c"/><rect x="0" y="84" width="6" height="6" fill="#69a04f"/><rect x="434" y="84" width="6" height="6" fill="#69a04f"/><rect x="6" y="90" width="6" height="6" fill="#4a7a3c"/><rect x="12" y="90" width="6" height="6" fill="#2f5229"/><rect x="434" y="90" width="6" height="6" fill="#2f5229"/><rect x="6" y="96" width="6" height="6" fill="#4a7a3c"/><rect x="12" y="96" width="6" height="6" fill="#4a7a3c"/><rect x="6" y="102" width="6" height="6" fill="#69a04f"/><rect x="12" y="102" width="6" height="6" fill="#69a04f"/><rect x="6" y="108" width="6" height="6" fill="#4a7a3c"/><rect x="12" y="108" width="6" height="6" fill="#2f5229"/><rect x="6" y="114" width="6" height="6" fill="#4a7a3c"/><rect x="12" y="114" width="6" height="6" fill="#4a7a3c"/><rect x="6" y="120" width="6" height="6" fill="#2f5229"/><rect x="30" y="160" width="6" height="6" fill="#2f5229"/><rect x="42" y="160" width="6" height="6" fill="#2f5229"/><rect x="392" y="160" width="6" height="6" fill="#2f5229"/><rect x="398" y="160" width="6" height="6" fill="#69a04f"/><rect x="404" y="160" width="6" height="6" fill="#4a7a3c"/><rect x="410" y="160" width="6" height="6" fill="#4a7a3c"/><rect x="24" y="166" width="6" height="6" fill="#2f5229"/><rect x="30" y="166" width="6" height="6" fill="#2f5229"/><rect x="36" y="166" width="6" height="6" fill="#2f5229"/><rect x="42" y="166" width="6" height="6" fill="#2f5229"/><rect x="392" y="166" width="6" height="6" fill="#2f5229"/><rect x="398" y="166" width="6" height="6" fill="#2f5229"/><rect x="404" y="166" width="6" height="6" fill="#2f5229"/><rect x="410" y="166" width="6" height="6" fill="#2f5229"/></g></svg>