<svg xmlns="http://www.w3.org/2000/svg" width="440" height="172" viewBox="0 0 440 172" shape-rendering="crispEdges"><style>.bd{animation:g 3s ease-in-out 1.5s infinite}@keyframes g{50%{stroke:#7a3fd1}}</style><rect width="440" height="172" fill="#100010"/><rect class="bd" x="4" y="4" width="432" height="164" fill="none" stroke="#3b0f80" stroke-width="4"/><rect x="0" y="0" width="440" height="172" fill="none" stroke="#100010" stroke-width="4"/><rect x="20" y="22" width="68" height="68" fill="#8b8b8b"/><rect x="20" y="22" width="68" height="3" fill="#373737"/><rect x="20" y="22" width="3" height="68" fill="#373737"/><rect x="20" y="87" width="68" height="3" fill="#ffffff"/><rect x="85" y="22" width="3" height="68" fill="#ffffff"/><path fill="#f5f5f5" d="M64 30h6v6h-6zM70 30h6v6h-6zM58 36h6v6h-6zM64 36h6v6h-6zM70 36h6v6h-6zM52 42h6v6h-6zM58 42h6v6h-6zM64 42h6v6h-6zM46 48h6v6h-6zM52 48h6v6h-6zM58 48h6v6h-6zM40 54h6v6h-6zM46 54h6v6h-6zM52 54h6v6h-6zM34 60h6v6h-6zM40 60h6v6h-6zM46 60h6v6h-6zM34 66h6v6h-6z"/><path fill="#bdbdbd" d="M70 42h6v6h-6zM64 48h6v6h-6zM58 54h6v6h-6zM52 60h6v6h-6zM40 66h6v6h-6z"/><path fill="#8b8b8b" d="M28 66h6v6h-6zM28 72h6v6h-6z"/><text x="104" y="40" font-size="16" font-weight="bold" fill="#ff55ff" font-family="'DejaVu Sans Mono',Consolas,'Courier New',monospace">NeuroReflex-X</text><text x="104" y="64" font-size="12" fill="#aaaaaa" font-family="'DejaVu Sans Mono',Consolas,'Courier New',monospace">Bio-inspired reflex-cognitive drone</text><text x="104" y="81" font-size="12" fill="#aaaaaa" font-family="'DejaVu Sans Mono',Consolas,'Courier New',monospace">pursuit framework with kinematic</text><text x="104" y="98" font-size="12" fill="#aaaaaa" font-family="'DejaVu Sans Mono',Consolas,'Courier New',monospace">prediction.</text><text x="104" y="123" font-size="12" fill="#5555ff" font-family="'DejaVu Sans Mono',Consolas,'Courier New',monospace">+ Hawk · Locust · Dragonfly</text><rect x="20" y="140" width="10" height="10" fill="#f1e05a"/><text x="38" y="149" font-size="11" fill="#dddddd" font-family="'DejaVu Sans Mono',Consolas,'Courier New',monospace">JavaScript</text><text x="420" y="149" font-size="10" fill="#777777" text-anchor="end" font-family="'DejaVu Sans Mono',Consolas,'Courier New',monospace">thanmaiashok/NeuroReflex-X</text></svg>