<svg xmlns="http://www.w3.org/2000/svg" width="900" height="288" viewBox="0 0 900 288" shape-rendering="crispEdges"><style>.t{animation:sl .6s backwards}@keyframes sl{from{opacity:0;transform:translateX(60px)}to{opacity:1;transform:none}}</style><g class="t" style="animation-delay:0.00s"><rect x="6" y="4" width="288" height="64" fill="#212121"/><rect x="6" y="4" width="288" height="4" fill="#6a6a6a"/><rect x="6" y="64" width="288" height="4" fill="#0e0e0e"/><rect x="6" y="4" width="4" height="64" fill="#6a6a6a"/><rect x="290" y="4" width="4" height="64" fill="#0e0e0e"/><rect x="18" y="16" width="40" height="40" fill="#8b8b8b"/><rect x="18" y="16" width="40" height="3" fill="#373737"/><rect x="18" y="16" width="3" height="40" fill="#373737"/><rect x="18" y="53" width="40" height="3" fill="#ffffff"/><rect x="55" y="16" width="3" height="40" fill="#ffffff"/><path fill="#ffd23a" d="M34 20h4v4h-4zM38 20h4v4h-4zM34 24h4v4h-4zM38 24h4v4h-4zM22 28h4v4h-4zM26 28h4v4h-4zM30 28h4v4h-4zM34 28h4v4h-4zM38 28h4v4h-4zM42 28h4v4h-4zM46 28h4v4h-4zM50 28h4v4h-4zM26 32h4v4h-4zM30 32h4v4h-4zM34 32h4v4h-4zM38 32h4v4h-4zM42 32h4v4h-4zM46 32h4v4h-4zM30 36h4v4h-4zM34 36h4v4h-4zM38 36h4v4h-4zM42 36h4v4h-4zM26 40h4v4h-4zM30 40h4v4h-4zM34 40h4v4h-4zM38 40h4v4h-4zM42 40h4v4h-4zM46 40h4v4h-4zM26 44h4v4h-4zM30 44h4v4h-4zM42 44h4v4h-4zM46 44h4v4h-4zM22 48h4v4h-4zM26 48h4v4h-4zM46 48h4v4h-4zM50 48h4v4h-4z"/><text x="70" y="30" font-size="13" font-weight="bold" fill="#ffff55" font-family="'DejaVu Sans Mono',Consolas,'Courier New',monospace">Advancement Made!</text><text x="70" y="46" font-size="12" fill="#ffffff" font-family="'DejaVu Sans Mono',Consolas,'Courier New',monospace">Published Author</text><text x="70" y="60" font-size="10" fill="#aaaaaa" font-family="'DejaVu Sans Mono',Consolas,'Courier New',monospace">2 IEEE papers in 2025</text></g><g class="t" style="animation-delay:0.15s"><rect x="304" y="4" width="288" height="64" fill="#212121"/><rect x="304" y="4" width="288" height="4" fill="#6a6a6a"/><rect x="304" y="64" width="288" height="4" fill="#0e0e0e"/><rect x="304" y="4" width="4" height="64" fill="#6a6a6a"/><rect x="588" y="4" width="4" height="64" fill="#0e0e0e"/><rect x="316" y="16" width="40" height="40" fill="#8b8b8b"/><rect x="316" y="16" width="40" height="3" fill="#373737"/><rect x="316" y="16" width="3" height="40" fill="#373737"/><rect x="316" y="53" width="40" height="3" fill="#ffffff"/><rect x="353" y="16" width="3" height="40" fill="#ffffff"/><path fill="#dfe4ea" d="M344 20h4v4h-4zM348 20h4v4h-4zM340 24h4v4h-4zM344 24h4v4h-4zM336 28h4v4h-4zM340 28h4v4h-4zM332 32h4v4h-4zM336 32h4v4h-4zM328 36h4v4h-4zM332 36h4v4h-4z"/><path fill="#c9a227" d="M320 32h4v4h-4zM324 36h4v4h-4zM328 40h4v4h-4zM332 40h4v4h-4zM328 44h4v4h-4zM336 44h4v4h-4z"/><path fill="#8b5a2b" d="M324 44h4v4h-4zM320 48h4v4h-4z"/><text x="368" y="30" font-size="13" font-weight="bold" fill="#ffff55" font-family="'DejaVu Sans Mono',Consolas,'Courier New',monospace">Advancement Made!</text><text x="368" y="46" font-size="12" fill="#ffffff" font-family="'DejaVu Sans Mono',Consolas,'Courier New',monospace">Shipper</text><text x="368" y="60" font-size="10" fill="#aaaaaa" font-family="'DejaVu Sans Mono',Consolas,'Courier New',monospace">11 projects built and released</text></g><g class="t" style="animation-delay:0.30s"><rect x="602" y="4" width="288" height="64" fill="#212121"/><rect x="602" y="4" width="288" height="4" fill="#6a6a6a"/><rect x="602" y="64" width="288" height="4" fill="#0e0e0e"/><rect x="602" y="4" width="4" height="64" fill="#6a6a6a"/><rect x="886" y="4" width="4" height="64" fill="#0e0e0e"/><rect x="614" y="16" width="40" height="40" fill="#8b8b8b"/><rect x="614" y="16" width="40" height="3" fill="#373737"/><rect x="614" y="16" width="3" height="40" fill="#373737"/><rect x="614" y="53" width="40" height="3" fill="#ffffff"/><rect x="651" y="16" width="3" height="40" fill="#ffffff"/><path fill="#3b2414" d="M618 20h4v4h-4zM622 20h4v4h-4zM626 20h4v4h-4zM630 20h4v4h-4zM634 20h4v4h-4zM638 20h4v4h-4zM642 20h4v4h-4zM646 20h4v4h-4zM618 24h4v4h-4zM622 24h4v4h-4zM626 24h4v4h-4zM630 24h4v4h-4zM634 24h4v4h-4zM638 24h4v4h-4zM642 24h4v4h-4zM646 24h4v4h-4zM646 28h4v4h-4z"/><path fill="#c68a5c" d="M618 28h4v4h-4zM622 28h4v4h-4zM626 28h4v4h-4zM630 28h4v4h-4zM634 28h4v4h-4zM638 28h4v4h-4zM642 28h4v4h-4zM618 32h4v4h-4zM630 32h4v4h-4zM634 32h4v4h-4zM646 32h4v4h-4zM618 36h4v4h-4zM622 36h4v4h-4zM626 36h4v4h-4zM638 36h4v4h-4zM642 36h4v4h-4zM646 36h4v4h-4zM618 40h4v4h-4zM622 40h4v4h-4zM642 40h4v4h-4zM646 40h4v4h-4zM618 44h4v4h-4zM622 44h4v4h-4zM626 44h4v4h-4zM630 44h4v4h-4zM634 44h4v4h-4zM638 44h4v4h-4zM642 44h4v4h-4zM646 44h4v4h-4z"/><path fill="#3a4fd6" d="M622 32h4v4h-4zM642 32h4v4h-4z"/><path fill="#ffffff" d="M626 32h4v4h-4zM638 32h4v4h-4z"/><path fill="#8a5a3a" d="M630 36h4v4h-4zM634 36h4v4h-4z"/><path fill="#5a3a24" d="M626 40h4v4h-4zM630 40h4v4h-4zM634 40h4v4h-4zM638 40h4v4h-4z"/><path fill="#2aa5c2" d="M626 48h4v4h-4zM630 48h4v4h-4zM634 48h4v4h-4zM638 48h4v4h-4z"/><text x="666" y="30" font-size="13" font-weight="bold" fill="#ffff55" font-family="'DejaVu Sans Mono',Consolas,'Courier New',monospace">Advancement Made!</text><text x="666" y="46" font-size="12" fill="#ffffff" font-family="'DejaVu Sans Mono',Consolas,'Courier New',monospace">Founder</text><text x="666" y="60" font-size="10" fill="#aaaaaa" font-family="'DejaVu Sans Mono',Consolas,'Courier New',monospace">Founder of FoxynAI</text></g><g class="t" style="animation-delay:0.45s"><rect x="6" y="76" width="288" height="64" fill="#212121"/><rect x="6" y="76" width="288" height="4" fill="#6a6a6a"/><rect x="6" y="136" width="288" height="4" fill="#0e0e0e"/><rect x="6" y="76" width="4" height="64" fill="#6a6a6a"/><rect x="290" y="76" width="4" height="64" fill="#0e0e0e"/><rect x="18" y="88" width="40" height="40" fill="#8b8b8b"/><rect x="18" y="88" width="40" height="3" fill="#373737"/><rect x="18" y="88" width="3" height="40" fill="#373737"/><rect x="18" y="125" width="40" height="3" fill="#ffffff"/><rect x="55" y="88" width="3" height="40" fill="#ffffff"/><path fill="#4b1f7a" d="M30 92h4v4h-4zM34 92h4v4h-4zM38 92h4v4h-4zM42 92h4v4h-4zM46 92h4v4h-4zM26 96h4v4h-4zM50 96h4v4h-4zM26 100h4v4h-4zM50 100h4v4h-4zM26 104h4v4h-4zM50 104h4v4h-4zM26 108h4v4h-4zM50 108h4v4h-4zM26 112h4v4h-4zM50 112h4v4h-4zM26 116h4v4h-4zM30 116h4v4h-4zM34 116h4v4h-4zM38 116h4v4h-4zM42 116h4v4h-4zM46 116h4v4h-4zM50 116h4v4h-4z"/><path fill="#8a4fd6" d="M30 96h4v4h-4zM34 96h4v4h-4zM38 96h4v4h-4zM42 96h4v4h-4zM30 100h4v4h-4zM42 100h4v4h-4zM30 104h4v4h-4zM34 104h4v4h-4zM38 104h4v4h-4zM30 108h4v4h-4zM42 108h4v4h-4zM30 112h4v4h-4zM34 112h4v4h-4zM38 112h4v4h-4z"/><path fill="#e8dcff" d="M46 96h4v4h-4zM46 100h4v4h-4zM42 104h4v4h-4zM46 104h4v4h-4zM46 108h4v4h-4zM42 112h4v4h-4zM46 112h4v4h-4z"/><path fill="#ffe066" d="M34 100h4v4h-4zM38 100h4v4h-4zM34 108h4v4h-4zM38 108h4v4h-4z"/><text x="70" y="102" font-size="13" font-weight="bold" fill="#ffff55" font-family="'DejaVu Sans Mono',Consolas,'Courier New',monospace">Advancement Made!</text><text x="70" y="118" font-size="12" fill="#ffffff" font-family="'DejaVu Sans Mono',Consolas,'Courier New',monospace">Healthcare AI</text><text x="70" y="132" font-size="10" fill="#aaaaaa" font-family="'DejaVu Sans Mono',Consolas,'Courier New',monospace">Breast cancer + liver cirrhosis ML</text></g><g class="t" style="animation-delay:0.60s"><rect x="304" y="76" width="288" height="64" fill="#212121"/><rect x="304" y="76" width="288" height="4" fill="#6a6a6a"/><rect x="304" y="136" width="288" height="4" fill="#0e0e0e"/><rect x="304" y="76" width="4" height="64" fill="#6a6a6a"/><rect x="588" y="76" width="4" height="64" fill="#0e0e0e"/><rect x="316" y="88" width="40" height="40" fill="#8b8b8b"/><rect x="316" y="88" width="40" height="3" fill="#373737"/><rect x="316" y="88" width="3" height="40" fill="#373737"/><rect x="316" y="125" width="40" height="3" fill="#ffffff"/><rect x="353" y="88" width="3" height="40" fill="#ffffff"/><path fill="#4aedd9" d="M324 92h4v4h-4zM328 92h4v4h-4zM332 92h4v4h-4zM336 92h4v4h-4zM320 96h4v4h-4zM340 96h4v4h-4zM344 100h4v4h-4zM348 104h4v4h-4z"/><path fill="#8b5a2b" d="M336 96h4v4h-4zM336 100h4v4h-4zM340 100h4v4h-4zM332 104h4v4h-4zM336 104h4v4h-4zM328 108h4v4h-4zM332 108h4v4h-4zM324 112h4v4h-4zM328 112h4v4h-4zM320 116h4v4h-4zM324 116h4v4h-4zM320 120h4v4h-4z"/><text x="368" y="102" font-size="13" font-weight="bold" fill="#ffff55" font-family="'DejaVu Sans Mono',Consolas,'Courier New',monospace">Advancement Made!</text><text x="368" y="118" font-size="12" fill="#ffffff" font-family="'DejaVu Sans Mono',Consolas,'Courier New',monospace">Model Miner</text><text x="368" y="132" font-size="10" fill="#aaaaaa" font-family="'DejaVu Sans Mono',Consolas,'Courier New',monospace">Quantize, prune, distill any model</text></g><g class="t" style="animation-delay:0.75s"><rect x="602" y="76" width="288" height="64" fill="#212121"/><rect x="602" y="76" width="288" height="4" fill="#6a6a6a"/><rect x="602" y="136" width="288" height="4" fill="#0e0e0e"/><rect x="602" y="76" width="4" height="64" fill="#6a6a6a"/><rect x="886" y="76" width="4" height="64" fill="#0e0e0e"/><rect x="614" y="88" width="40" height="40" fill="#8b8b8b"/><rect x="614" y="88" width="40" height="3" fill="#373737"/><rect x="614" y="88" width="3" height="40" fill="#373737"/><rect x="614" y="125" width="40" height="3" fill="#ffffff"/><rect x="651" y="88" width="3" height="40" fill="#ffffff"/><path fill="#2f8f2f" d="M630 92h4v4h-4zM634 92h4v4h-4zM626 96h4v4h-4zM634 96h4v4h-4zM638 96h4v4h-4zM622 100h4v4h-4zM626 100h4v4h-4zM630 100h4v4h-4zM638 100h4v4h-4zM626 104h4v4h-4zM634 104h4v4h-4zM630 108h4v4h-4z"/><path fill="#57c957" d="M630 96h4v4h-4zM634 100h4v4h-4zM630 104h4v4h-4z"/><path fill="#7a4b25" d="M630 112h4v4h-4zM630 116h4v4h-4zM626 120h4v4h-4zM630 120h4v4h-4zM634 120h4v4h-4z"/><text x="666" y="102" font-size="13" font-weight="bold" fill="#ffff55" font-family="'DejaVu Sans Mono',Consolas,'Courier New',monospace">Advancement Made!</text><text x="666" y="118" font-size="12" fill="#ffffff" font-family="'DejaVu Sans Mono',Consolas,'Courier New',monospace">Green Thumb</text><text x="666" y="132" font-size="10" fill="#aaaaaa" font-family="'DejaVu Sans Mono',Consolas,'Courier New',monospace">Plant disease AR, 97.3% accurate</text></g><g class="t" style="animation-delay:0.90s"><rect x="6" y="148" width="288" height="64" fill="#212121"/><rect x="6" y="148" width="288" height="4" fill="#6a6a6a"/><rect x="6" y="208" width="288" height="4" fill="#0e0e0e"/><rect x="6" y="148" width="4" height="64" fill="#6a6a6a"/><rect x="290" y="148" width="4" height="64" fill="#0e0e0e"/><rect x="18" y="160" width="40" height="40" fill="#8b8b8b"/><rect x="18" y="160" width="40" height="3" fill="#373737"/><rect x="18" y="160" width="3" height="40" fill="#373737"/><rect x="18" y="197" width="40" height="3" fill="#ffffff"/><rect x="55" y="160" width="3" height="40" fill="#ffffff"/><path fill="#0d7a35" d="M30 164h4v4h-4zM34 164h4v4h-4zM38 164h4v4h-4zM42 164h4v4h-4zM26 168h4v4h-4zM46 168h4v4h-4zM22 172h4v4h-4zM50 172h4v4h-4zM22 176h4v4h-4zM50 176h4v4h-4zM22 180h4v4h-4zM46 180h4v4h-4zM26 184h4v4h-4zM42 184h4v4h-4zM30 188h4v4h-4zM42 188h4v4h-4zM34 192h4v4h-4zM38 192h4v4h-4z"/><path fill="#17dd62" d="M30 168h4v4h-4zM34 168h4v4h-4zM38 168h4v4h-4zM42 168h4v4h-4zM26 172h4v4h-4zM34 172h4v4h-4zM38 172h4v4h-4zM42 172h4v4h-4zM46 172h4v4h-4zM26 176h4v4h-4zM30 176h4v4h-4zM34 176h4v4h-4zM38 176h4v4h-4zM42 176h4v4h-4zM26 180h4v4h-4zM30 180h4v4h-4zM34 180h4v4h-4zM38 180h4v4h-4zM30 184h4v4h-4zM34 184h4v4h-4z"/><path fill="#c9ffd9" d="M30 172h4v4h-4z"/><path fill="#0a5a28" d="M46 176h4v4h-4zM42 180h4v4h-4zM50 180h4v4h-4zM38 184h4v4h-4zM46 184h4v4h-4zM34 188h4v4h-4zM38 188h4v4h-4z"/><text x="70" y="174" font-size="13" font-weight="bold" fill="#ffff55" font-family="'DejaVu Sans Mono',Consolas,'Courier New',monospace">Advancement Made!</text><text x="70" y="190" font-size="12" fill="#ffffff" font-family="'DejaVu Sans Mono',Consolas,'Courier New',monospace">Market Watcher</text><text x="70" y="204" font-size="10" fill="#aaaaaa" font-family="'DejaVu Sans Mono',Consolas,'Courier New',monospace">Paper trading on 18k+ stocks</text></g><g class="t" style="animation-delay:1.05s"><rect x="304" y="148" width="288" height="64" fill="#212121"/><rect x="304" y="148" width="288" height="4" fill="#6a6a6a"/><rect x="304" y="208" width="288" height="4" fill="#0e0e0e"/><rect x="304" y="148" width="4" height="64" fill="#6a6a6a"/><rect x="588" y="148" width="4" height="64" fill="#0e0e0e"/><rect x="316" y="160" width="40" height="40" fill="#8b8b8b"/><rect x="316" y="160" width="40" height="3" fill="#373737"/><rect x="316" y="160" width="3" height="40" fill="#373737"/><rect x="316" y="197" width="40" height="3" fill="#ffffff"/><rect x="353" y="160" width="3" height="40" fill="#ffffff"/><path fill="#7a7a7a" d="M328 164h4v4h-4zM332 164h4v4h-4zM336 164h4v4h-4zM340 164h4v4h-4zM324 168h4v4h-4zM344 168h4v4h-4zM320 172h4v4h-4zM348 172h4v4h-4zM320 176h4v4h-4zM348 176h4v4h-4zM320 180h4v4h-4zM348 180h4v4h-4zM320 184h4v4h-4zM348 184h4v4h-4zM324 188h4v4h-4zM344 188h4v4h-4zM328 192h4v4h-4zM332 192h4v4h-4zM336 192h4v4h-4zM340 192h4v4h-4z"/><path fill="#d9d9d9" d="M328 168h4v4h-4zM332 168h4v4h-4zM336 168h4v4h-4zM324 172h4v4h-4zM328 172h4v4h-4zM332 172h4v4h-4zM340 172h4v4h-4zM344 172h4v4h-4zM324 176h4v4h-4zM328 176h4v4h-4zM336 176h4v4h-4zM340 176h4v4h-4zM344 176h4v4h-4zM324 180h4v4h-4zM332 180h4v4h-4zM336 180h4v4h-4zM340 180h4v4h-4zM344 180h4v4h-4zM324 184h4v4h-4zM328 184h4v4h-4zM332 184h4v4h-4zM336 184h4v4h-4zM340 184h4v4h-4zM344 184h4v4h-4zM328 188h4v4h-4zM332 188h4v4h-4zM336 188h4v4h-4zM340 188h4v4h-4z"/><path fill="#d92b2b" d="M340 168h4v4h-4zM336 172h4v4h-4zM332 176h4v4h-4zM328 180h4v4h-4z"/><text x="368" y="174" font-size="13" font-weight="bold" fill="#ffff55" font-family="'DejaVu Sans Mono',Consolas,'Courier New',monospace">Advancement Made!</text><text x="368" y="190" font-size="12" fill="#ffffff" font-family="'DejaVu Sans Mono',Consolas,'Courier New',monospace">Graph Explorer</text><text x="368" y="204" font-size="10" fill="#aaaaaa" font-family="'DejaVu Sans Mono',Consolas,'Courier New',monospace">Graph RAG with Neo4j + vectors</text></g><g class="t" style="animation-delay:1.20s"><rect x="602" y="148" width="288" height="64" fill="#212121"/><rect x="602" y="148" width="288" height="4" fill="#6a6a6a"/><rect x="602" y="208" width="288" height="4" fill="#0e0e0e"/><rect x="602" y="148" width="4" height="64" fill="#6a6a6a"/><rect x="886" y="148" width="4" height="64" fill="#0e0e0e"/><rect x="614" y="160" width="40" height="40" fill="#8b8b8b"/><rect x="614" y="160" width="40" height="3" fill="#373737"/><rect x="614" y="160" width="3" height="40" fill="#373737"/><rect x="614" y="197" width="40" height="3" fill="#ffffff"/><rect x="651" y="160" width="3" height="40" fill="#ffffff"/><path fill="#7a0d0d" d="M630 168h4v4h-4zM634 168h4v4h-4zM626 172h4v4h-4zM638 172h4v4h-4zM622 176h4v4h-4zM642 176h4v4h-4zM622 180h4v4h-4zM642 180h4v4h-4zM626 184h4v4h-4zM638 184h4v4h-4zM630 188h4v4h-4zM634 188h4v4h-4z"/><path fill="#e53030" d="M630 172h4v4h-4zM634 172h4v4h-4zM626 176h4v4h-4zM630 176h4v4h-4zM634 176h4v4h-4zM638 176h4v4h-4zM626 180h4v4h-4zM630 180h4v4h-4zM634 180h4v4h-4zM638 180h4v4h-4zM630 184h4v4h-4zM634 184h4v4h-4z"/><text x="666" y="174" font-size="13" font-weight="bold" fill="#ffff55" font-family="'DejaVu Sans Mono',Consolas,'Courier New',monospace">Advancement Made!</text><text x="666" y="190" font-size="12" fill="#ffffff" font-family="'DejaVu Sans Mono',Consolas,'Courier New',monospace">Automation</text><text x="666" y="204" font-size="10" fill="#aaaaaa" font-family="'DejaVu Sans Mono',Consolas,'Courier New',monospace">Agent that edits 9:16 shorts</text></g><g class="t" style="animation-delay:1.35s"><rect x="6" y="220" width="288" height="64" fill="#212121"/><rect x="6" y="220" width="288" height="4" fill="#6a6a6a"/><rect x="6" y="280" width="288" height="4" fill="#0e0e0e"/><rect x="6" y="220" width="4" height="64" fill="#6a6a6a"/><rect x="290" y="220" width="4" height="64" fill="#0e0e0e"/><rect x="18" y="232" width="40" height="40" fill="#8b8b8b"/><rect x="18" y="232" width="40" height="3" fill="#373737"/><rect x="18" y="232" width="3" height="40" fill="#373737"/><rect x="18" y="269" width="40" height="3" fill="#ffffff"/><rect x="55" y="232" width="3" height="40" fill="#ffffff"/><path fill="#f5f5f5" d="M46 236h4v4h-4zM50 236h4v4h-4zM42 240h4v4h-4zM46 240h4v4h-4zM50 240h4v4h-4zM38 244h4v4h-4zM42 244h4v4h-4zM46 244h4v4h-4zM34 248h4v4h-4zM38 248h4v4h-4zM42 248h4v4h-4zM30 252h4v4h-4zM34 252h4v4h-4zM38 252h4v4h-4zM26 256h4v4h-4zM30 256h4v4h-4zM34 256h4v4h-4zM26 260h4v4h-4z"/><path fill="#bdbdbd" d="M50 244h4v4h-4zM46 248h4v4h-4zM42 252h4v4h-4zM38 256h4v4h-4zM30 260h4v4h-4z"/><path fill="#8b8b8b" d="M22 260h4v4h-4zM22 264h4v4h-4z"/><text x="70" y="246" font-size="13" font-weight="bold" fill="#ffff55" font-family="'DejaVu Sans Mono',Consolas,'Courier New',monospace">Advancement Made!</text><text x="70" y="262" font-size="12" fill="#ffffff" font-family="'DejaVu Sans Mono',Consolas,'Courier New',monospace">Bio Inspired</text><text x="70" y="276" font-size="10" fill="#aaaaaa" font-family="'DejaVu Sans Mono',Consolas,'Courier New',monospace">Hawk, locust, dragonfly pursuit</text></g><g class="t" style="animation-delay:1.50s"><rect x="304" y="220" width="288" height="64" fill="#212121"/><rect x="304" y="220" width="288" height="4" fill="#6a6a6a"/><rect x="304" y="280" width="288" height="4" fill="#0e0e0e"/><rect x="304" y="220" width="4" height="64" fill="#6a6a6a"/><rect x="588" y="220" width="4" height="64" fill="#0e0e0e"/><rect x="316" y="232" width="40" height="40" fill="#8b8b8b"/><rect x="316" y="232" width="40" height="3" fill="#373737"/><rect x="316" y="232" width="3" height="40" fill="#373737"/><rect x="316" y="269" width="40" height="3" fill="#ffffff"/><rect x="353" y="232" width="3" height="40" fill="#ffffff"/><path fill="#cfd8dc" d="M332 236h4v4h-4zM336 236h4v4h-4zM332 240h4v4h-4zM336 240h4v4h-4zM328 244h4v4h-4zM340 244h4v4h-4zM324 248h4v4h-4zM344 248h4v4h-4zM320 252h4v4h-4zM348 252h4v4h-4zM320 256h4v4h-4zM348 256h4v4h-4zM324 260h4v4h-4zM344 260h4v4h-4zM328 264h4v4h-4zM332 264h4v4h-4zM336 264h4v4h-4zM340 264h4v4h-4z"/><path fill="#eceff1" d="M332 244h4v4h-4zM336 244h4v4h-4z"/><path fill="#d63a3a" d="M328 248h4v4h-4zM332 248h4v4h-4zM336 248h4v4h-4zM340 248h4v4h-4zM324 252h4v4h-4zM328 252h4v4h-4zM332 252h4v4h-4zM336 252h4v4h-4zM340 252h4v4h-4zM344 252h4v4h-4zM324 256h4v4h-4zM328 256h4v4h-4zM336 256h4v4h-4zM340 256h4v4h-4zM344 256h4v4h-4zM328 260h4v4h-4zM332 260h4v4h-4zM336 260h4v4h-4zM340 260h4v4h-4z"/><path fill="#ff8a8a" d="M332 256h4v4h-4z"/><text x="368" y="246" font-size="13" font-weight="bold" fill="#ffff55" font-family="'DejaVu Sans Mono',Consolas,'Courier New',monospace">Advancement Made!</text><text x="368" y="262" font-size="12" fill="#ffffff" font-family="'DejaVu Sans Mono',Consolas,'Courier New',monospace">Quality Gate</text><text x="368" y="276" font-size="10" fill="#aaaaaa" font-family="'DejaVu Sans Mono',Consolas,'Courier New',monospace">Wine ML pipeline, 94% accuracy</text></g><g class="t" style="animation-delay:1.65s"><rect x="602" y="220" width="288" height="64" fill="#212121"/><rect x="602" y="220" width="288" height="4" fill="#6a6a6a"/><rect x="602" y="280" width="288" height="4" fill="#0e0e0e"/><rect x="602" y="220" width="4" height="64" fill="#6a6a6a"/><rect x="886" y="220" width="4" height="64" fill="#0e0e0e"/><rect x="614" y="232" width="40" height="40" fill="#8b8b8b"/><rect x="614" y="232" width="40" height="3" fill="#373737"/><rect x="614" y="232" width="3" height="40" fill="#373737"/><rect x="614" y="269" width="40" height="3" fill="#ffffff"/><rect x="651" y="232" width="3" height="40" fill="#ffffff"/><path fill="#0f6b4a" d="M626 240h4v4h-4zM630 240h4v4h-4zM634 240h4v4h-4zM638 240h4v4h-4zM622 244h4v4h-4zM642 244h4v4h-4zM618 248h4v4h-4zM646 248h4v4h-4zM618 252h4v4h-4zM646 252h4v4h-4zM622 256h4v4h-4zM642 256h4v4h-4zM626 260h4v4h-4zM630 260h4v4h-4zM634 260h4v4h-4zM638 260h4v4h-4z"/><path fill="#3ee0a1" d="M626 244h4v4h-4zM630 244h4v4h-4zM634 244h4v4h-4zM638 244h4v4h-4zM622 248h4v4h-4zM626 248h4v4h-4zM638 248h4v4h-4zM642 248h4v4h-4zM622 252h4v4h-4zM626 252h4v4h-4zM638 252h4v4h-4zM642 252h4v4h-4zM626 256h4v4h-4zM630 256h4v4h-4zM634 256h4v4h-4zM638 256h4v4h-4z"/><path fill="#0a2a1f" d="M630 248h4v4h-4zM634 248h4v4h-4zM630 252h4v4h-4zM634 252h4v4h-4z"/><text x="666" y="246" font-size="13" font-weight="bold" fill="#ffff55" font-family="'DejaVu Sans Mono',Consolas,'Courier New',monospace">Advancement Made!</text><text x="666" y="262" font-size="12" fill="#ffffff" font-family="'DejaVu Sans Mono',Consolas,'Courier New',monospace">Local First</text><text x="666" y="276" font-size="10" fill="#aaaaaa" font-family="'DejaVu Sans Mono',Consolas,'Courier New',monospace">No paid APIs, runs on a laptop</text></g></svg>