<svg xmlns="http://www.w3.org/2000/svg" width="126" height="40" viewBox="0 0 126 40" shape-rendering="crispEdges"><style></style><rect width="126" height="40" fill="#000"/><rect x="2" y="2" width="122" height="36" fill="#6f6f6f"/><rect x="2" y="2" width="122" height="3" fill="#a8a8a8"/><rect x="2" y="2" width="3" height="36" fill="#a8a8a8"/><rect x="2" y="33" width="122" height="5" fill="#3d3d3d"/><rect x="121" y="2" width="3" height="36" fill="#4a4a4a"/><path fill="#3a3a3a" d="M32 15h8v2h-8zM30 17h2v2h-2zM30 19h2v2h-2zM30 21h2v2h-2zM36 21h4v2h-4zM30 23h2v2h-2zM38 23h2v2h-2zM30 25h2v2h-2zM38 25h2v2h-2zM32 27h6v2h-6zM42 15h10v2h-10zM46 17h2v2h-2zM46 19h2v2h-2zM46 21h2v2h-2zM46 23h2v2h-2zM46 25h2v2h-2zM42 27h10v2h-10zM54 15h10v2h-10zM58 17h2v2h-2zM58 19h2v2h-2zM58 21h2v2h-2zM58 23h2v2h-2zM58 25h2v2h-2zM58 27h2v2h-2zM66 15h2v2h-2zM74 15h2v2h-2zM66 17h2v2h-2zM74 17h2v2h-2zM66 19h2v2h-2zM74 19h2v2h-2zM66 21h10v2h-10zM66 23h2v2h-2zM74 23h2v2h-2zM66 25h2v2h-2zM74 25h2v2h-2zM66 27h2v2h-2zM74 27h2v2h-2zM78 15h2v2h-2zM86 15h2v2h-2zM78 17h2v2h-2zM86 17h2v2h-2zM78 19h2v2h-2zM86 19h2v2h-2zM78 21h2v2h-2zM86 21h2v2h-2zM78 23h2v2h-2zM86 23h2v2h-2zM78 25h2v2h-2zM86 25h2v2h-2zM80 27h6v2h-6zM90 15h8v2h-8zM90 17h2v2h-2zM98 17h2v2h-2zM90 19h2v2h-2zM98 19h2v2h-2zM90 21h8v2h-8zM90 23h2v2h-2zM98 23h2v2h-2zM90 25h2v2h-2zM98 25h2v2h-2zM90 27h8v2h-8z"/><path fill="#ffffff" d="M30 13h8v2h-8zM28 15h2v2h-2zM28 17h2v2h-2zM28 19h2v2h-2zM34 19h4v2h-4zM28 21h2v2h-2zM36 21h2v2h-2zM28 23h2v2h-2zM36 23h2v2h-2zM30 25h6v2h-6zM40 13h10v2h-10zM44 15h2v2h-2zM44 17h2v2h-2zM44 19h2v2h-2zM44 21h2v2h-2zM44 23h2v2h-2zM40 25h10v2h-10zM52 13h10v2h-10zM56 15h2v2h-2zM56 17h2v2h-2zM56 19h2v2h-2zM56 21h2v2h-2zM56 23h2v2h-2zM56 25h2v2h-2zM64 13h2v2h-2zM72 13h2v2h-2zM64 15h2v2h-2zM72 15h2v2h-2zM64 17h2v2h-2zM72 17h2v2h-2zM64 19h10v2h-10zM64 21h2v2h-2zM72 21h2v2h-2zM64 23h2v2h-2zM72 23h2v2h-2zM64 25h2v2h-2zM72 25h2v2h-2zM76 13h2v2h-2zM84 13h2v2h-2zM76 15h2v2h-2zM84 15h2v2h-2zM76 17h2v2h-2zM84 17h2v2h-2zM76 19h2v2h-2zM84 19h2v2h-2zM76 21h2v2h-2zM84 21h2v2h-2zM76 23h2v2h-2zM84 23h2v2h-2zM78 25h6v2h-6zM88 13h8v2h-8zM88 15h2v2h-2zM96 15h2v2h-2zM88 17h2v2h-2zM96 17h2v2h-2zM88 19h8v2h-8zM88 21h2v2h-2zM96 21h2v2h-2zM88 23h2v2h-2zM96 23h2v2h-2zM88 25h8v2h-8z"/></svg>