<svg xmlns="http://www.w3.org/2000/svg" width="900" height="176" viewBox="0 0 900 176" shape-rendering="crispEdges"><style>.bd{animation:g 3s ease-in-out infinite}@keyframes g{50%{stroke:#7a3fd1}}</style><rect width="900" height="176" fill="#100010"/><rect class="bd" x="4" y="4" width="892" height="168" fill="none" stroke="#3b0f80" stroke-width="4"/><rect x="24" y="26" width="88" height="88" fill="#8b8b8b"/><rect x="24" y="26" width="88" height="3" fill="#373737"/><rect x="24" y="26" width="3" height="88" fill="#373737"/><rect x="24" y="111" width="88" height="3" fill="#ffffff"/><rect x="109" y="26" width="3" height="88" fill="#ffffff"/><path fill="#e07b2a" d="M32 34h8v8h-8zM96 34h8v8h-8zM32 42h8v8h-8zM40 42h8v8h-8zM88 42h8v8h-8zM96 42h8v8h-8zM32 50h8v8h-8zM40 50h8v8h-8zM48 50h8v8h-8zM56 50h8v8h-8zM64 50h8v8h-8zM72 50h8v8h-8zM80 50h8v8h-8zM88 50h8v8h-8zM96 50h8v8h-8zM32 58h8v8h-8zM40 58h8v8h-8zM56 58h8v8h-8zM64 58h8v8h-8zM72 58h8v8h-8zM88 58h8v8h-8zM96 58h8v8h-8zM32 66h8v8h-8zM56 66h8v8h-8zM64 66h8v8h-8zM72 66h8v8h-8zM96 66h8v8h-8zM32 74h8v8h-8zM96 74h8v8h-8zM40 82h8v8h-8zM88 82h8v8h-8zM48 90h8v8h-8zM80 90h8v8h-8zM56 98h8v8h-8zM72 98h8v8h-8z"/><path fill="#1a1a1a" d="M48 58h8v8h-8zM80 58h8v8h-8z"/><path fill="#f4efe6" d="M40 66h8v8h-8zM48 66h8v8h-8zM80 66h8v8h-8zM88 66h8v8h-8zM40 74h8v8h-8zM48 74h8v8h-8zM56 74h8v8h-8zM64 74h8v8h-8zM72 74h8v8h-8zM80 74h8v8h-8zM88 74h8v8h-8zM48 82h8v8h-8zM56 82h8v8h-8zM64 82h8v8h-8zM72 82h8v8h-8zM80 82h8v8h-8zM56 90h8v8h-8zM64 90h8v8h-8zM72 90h8v8h-8z"/><path fill="#1a1a1a" d="M64 98h8v8h-8z"/><text x="136" y="50" font-size="22" font-weight="bold" fill="#ffaa00" font-family="'DejaVu Sans Mono',Consolas,'Courier New',monospace">Foxyn AI</text><text x="136" y="78" font-size="14" fill="#cfcfcf" font-family="'DejaVu Sans Mono',Consolas,'Courier New',monospace">Custom AI solutions &amp; intelligent automation for businesses.</text><text x="136" y="104" font-size="13" fill="#5555ff" font-family="'DejaVu Sans Mono',Consolas,'Courier New',monospace">+ Founder: Thanmai A</text><text x="136" y="124" font-size="13" fill="#5555ff" font-family="'DejaVu Sans Mono',Consolas,'Courier New',monospace">+ Building AI products that turn ideas into working software</text><text x="136" y="154" font-size="12" fill="#aaaaaa" font-family="'DejaVu Sans Mono',Consolas,'Courier New',monospace">foxynai.com</text><text x="876" y="154" font-size="11" text-anchor="end" fill="#777777" font-family="'DejaVu Sans Mono',Consolas,'Courier New',monospace">github.com/foxynaillp</text></svg>